<?xml version="1.0" encoding="UTF-8" standalone="no"?>
<svg xmlns:dc="http://purl.org/dc/elements/1.1/" xmlns:cc="http://creativecommons.org/ns#" xmlns:rdf="http://www.w3.org/1999/02/22-rdf-syntax-ns#" xmlns:svg="http://www.w3.org/2000/svg" xmlns="http://www.w3.org/2000/svg" xmlns:sodipodi="http://sodipodi.sourceforge.net/DTD/sodipodi-0.dtd" xmlns:inkscape="http://www.inkscape.org/namespaces/inkscape" width="100" height="100" id="svg7960" version="1.1" inkscape:version="0.48.4 r9939" sodipodi:docname="NetBanking_.svg">
  <defs id="defs7962">
    <clipPath clipPathUnits="userSpaceOnUse" id="clipPath3094-8">
      <path style="font-size:medium;font-style:normal;font-variant:normal;font-weight:normal;font-stretch:normal;text-indent:0;text-align:start;text-decoration:none;line-height:normal;letter-spacing:normal;word-spacing:normal;text-transform:none;direction:ltr;block-progression:tb;writing-mode:lr-tb;text-anchor:start;baseline-shift:baseline;color:#000000;fill:#ee0028;fill-opacity:1;stroke:none;stroke-width:1px;marker:none;visibility:visible;display:inline;overflow:visible;enable-background:accumulate;font-family:Sans;-inkscape-font-specification:Sans" d="m 1475.7812,430.15625 0,1 7.4688,0 0,-1 -7.4688,0 z m -1.6562,2.53125 0,1 10.7812,0 0,-1 -10.7812,0 z m -0.625,2.5 0,1 12.0625,0 0,-1 -12.0625,0 z m 0.625,2.53125 0,1 10.7812,0 0,-1 -10.7812,0 z m 0,2.53125 0,1 10.7812,0 0,-1 -10.7812,0 z" id="path3096-8" inkscape:connector-curvature="0"/>
    </clipPath>
    <clipPath clipPathUnits="userSpaceOnUse" id="clipPath3094-8-2">
      <path style="font-size:medium;font-style:normal;font-variant:normal;font-weight:normal;font-stretch:normal;text-indent:0;text-align:start;text-decoration:none;line-height:normal;letter-spacing:normal;word-spacing:normal;text-transform:none;direction:ltr;block-progression:tb;writing-mode:lr-tb;text-anchor:start;baseline-shift:baseline;color:#000000;fill:#ee0028;fill-opacity:1;stroke:none;stroke-width:1px;marker:none;visibility:visible;display:inline;overflow:visible;enable-background:accumulate;font-family:Sans;-inkscape-font-specification:Sans" d="m 1475.7812,430.15625 0,1 7.4688,0 0,-1 -7.4688,0 z m -1.6562,2.53125 0,1 10.7812,0 0,-1 -10.7812,0 z m -0.625,2.5 0,1 12.0625,0 0,-1 -12.0625,0 z m 0.625,2.53125 0,1 10.7812,0 0,-1 -10.7812,0 z m 0,2.53125 0,1 10.7812,0 0,-1 -10.7812,0 z" id="path3096-8-4" inkscape:connector-curvature="0"/>
    </clipPath>
    <clipPath clipPathUnits="userSpaceOnUse" id="clipPath3094-8-2-4">
      <path style="font-size:medium;font-style:normal;font-variant:normal;font-weight:normal;font-stretch:normal;text-indent:0;text-align:start;text-decoration:none;line-height:normal;letter-spacing:normal;word-spacing:normal;text-transform:none;direction:ltr;block-progression:tb;writing-mode:lr-tb;text-anchor:start;baseline-shift:baseline;color:#000000;fill:#ee0028;fill-opacity:1;stroke:none;stroke-width:1px;marker:none;visibility:visible;display:inline;overflow:visible;enable-background:accumulate;font-family:Sans;-inkscape-font-specification:Sans" d="m 1475.7812,430.15625 0,1 7.4688,0 0,-1 -7.4688,0 z m -1.6562,2.53125 0,1 10.7812,0 0,-1 -10.7812,0 z m -0.625,2.5 0,1 12.0625,0 0,-1 -12.0625,0 z m 0.625,2.53125 0,1 10.7812,0 0,-1 -10.7812,0 z m 0,2.53125 0,1 10.7812,0 0,-1 -10.7812,0 z" id="path3096-8-4-0" inkscape:connector-curvature="0"/>
    </clipPath>
    <clipPath clipPathUnits="userSpaceOnUse" id="clipPath3094-8-7">
      <path style="font-size:medium;font-style:normal;font-variant:normal;font-weight:normal;font-stretch:normal;text-indent:0;text-align:start;text-decoration:none;line-height:normal;letter-spacing:normal;word-spacing:normal;text-transform:none;direction:ltr;block-progression:tb;writing-mode:lr-tb;text-anchor:start;baseline-shift:baseline;color:#000000;fill:#ee0028;fill-opacity:1;stroke:none;stroke-width:1px;marker:none;visibility:visible;display:inline;overflow:visible;enable-background:accumulate;font-family:Sans;-inkscape-font-specification:Sans" d="m 1475.7812,430.15625 0,1 7.4688,0 0,-1 -7.4688,0 z m -1.6562,2.53125 0,1 10.7812,0 0,-1 -10.7812,0 z m -0.625,2.5 0,1 12.0625,0 0,-1 -12.0625,0 z m 0.625,2.53125 0,1 10.7812,0 0,-1 -10.7812,0 z m 0,2.53125 0,1 10.7812,0 0,-1 -10.7812,0 z" id="path3096-8-6" inkscape:connector-curvature="0"/>
    </clipPath>
    <clipPath clipPathUnits="userSpaceOnUse" id="clipPath3094-8-3">
      <path style="font-size:medium;font-style:normal;font-variant:normal;font-weight:normal;font-stretch:normal;text-indent:0;text-align:start;text-decoration:none;line-height:normal;letter-spacing:normal;word-spacing:normal;text-transform:none;direction:ltr;block-progression:tb;writing-mode:lr-tb;text-anchor:start;baseline-shift:baseline;color:#000000;fill:#ee0028;fill-opacity:1;stroke:none;stroke-width:1px;marker:none;visibility:visible;display:inline;overflow:visible;enable-background:accumulate;font-family:Sans;-inkscape-font-specification:Sans" d="m 1475.7812,430.15625 0,1 7.4688,0 0,-1 -7.4688,0 z m -1.6562,2.53125 0,1 10.7812,0 0,-1 -10.7812,0 z m -0.625,2.5 0,1 12.0625,0 0,-1 -12.0625,0 z m 0.625,2.53125 0,1 10.7812,0 0,-1 -10.7812,0 z m 0,2.53125 0,1 10.7812,0 0,-1 -10.7812,0 z" id="path3096-8-61" inkscape:connector-curvature="0"/>
    </clipPath>
    <clipPath clipPathUnits="userSpaceOnUse" id="clipPath3094-8-2-5">
      <path style="font-size:medium;font-style:normal;font-variant:normal;font-weight:normal;font-stretch:normal;text-indent:0;text-align:start;text-decoration:none;line-height:normal;letter-spacing:normal;word-spacing:normal;text-transform:none;direction:ltr;block-progression:tb;writing-mode:lr-tb;text-anchor:start;baseline-shift:baseline;color:#000000;fill:#ee0028;fill-opacity:1;stroke:none;stroke-width:1px;marker:none;visibility:visible;display:inline;overflow:visible;enable-background:accumulate;font-family:Sans;-inkscape-font-specification:Sans" d="m 1475.7812,430.15625 0,1 7.4688,0 0,-1 -7.4688,0 z m -1.6562,2.53125 0,1 10.7812,0 0,-1 -10.7812,0 z m -0.625,2.5 0,1 12.0625,0 0,-1 -12.0625,0 z m 0.625,2.53125 0,1 10.7812,0 0,-1 -10.7812,0 z m 0,2.53125 0,1 10.7812,0 0,-1 -10.7812,0 z" id="path3096-8-4-4" inkscape:connector-curvature="0"/>
    </clipPath>
  </defs>
  <sodipodi:namedview id="base" pagecolor="#ffffff" bordercolor="#666666" borderopacity="1.0" inkscape:pageopacity="0.0" inkscape:pageshadow="2" inkscape:zoom="1.979899" inkscape:cx="120.66649" inkscape:cy="91.541357" inkscape:document-units="px" inkscape:current-layer="g6653" showgrid="false" inkscape:window-width="667" inkscape:window-height="689" inkscape:window-x="683" inkscape:window-y="0" inkscape:window-maximized="0"/>
  
  <g inkscape:label="Layer 1" inkscape:groupmode="layer" id="layer1" transform="translate(0,-952.36218)">
    <g transform="matrix(0.88738621,0,0,0.88738621,1267.3275,619.67566)" id="g6653">
      <rect transform="translate(-1348.2549,94.512679)" style="fill:#f9f9f9;fill-opacity:1;fill-rule:evenodd;stroke:#000000;stroke-width:0.80000001;stroke-linecap:round;stroke-linejoin:round;stroke-miterlimit:4;stroke-opacity:1;stroke-dasharray:none;stroke-dashoffset:0" id="rect4942" width="63.214283" height="40.714283" x="-73.878845" y="317.7287" ry="3.5986683" rx="3.5986683"/>
      <rect transform="translate(-1348.2549,94.512679)" rx="3.5986683" ry="3.5986683" y="317.7287" x="-16.050562" height="40.714283" width="44.527412" id="rect4948" style="fill:#265697;fill-opacity:1;fill-rule:evenodd;stroke:#000000;stroke-width:0.80000001;stroke-linecap:round;stroke-linejoin:round;stroke-miterlimit:4;stroke-opacity:1;stroke-dasharray:none;stroke-dashoffset:0"/>
      <g transform="translate(-1348.2549,94.512679)" style="font-size:18.76154709px;font-style:normal;font-weight:normal;line-height:125%;letter-spacing:0px;word-spacing:0px;fill:#4d4d4d;fill-opacity:1;stroke:none;font-family:Sans;-inkscape-font-specification:'Segoe WP Black, Ultra-Bold'" id="text4932-5">
        <path d="m -57.685915,338.89135 -4.635422,-6.33935 c -0.195438,-0.26872 -0.366442,-0.51453 -0.513011,-0.73746 -0.14658,-0.2229 -0.274832,-0.42902 -0.384758,-0.61836 l -0.03664,0 c 0.01832,0.3237 0.03206,0.66265 0.04122,1.01686 0.0092,0.35423 0.01374,0.74204 0.01374,1.16344 l 0,5.51487 -3.664365,0 0,-13.13675 3.737652,0 4.443042,6.02788 c 0.05496,0.0794 0.122136,0.17407 0.20154,0.28399 0.07938,0.10994 0.15878,0.22292 0.238184,0.33895 0.07939,0.11605 0.154199,0.22903 0.224442,0.33896 0.07022,0.10993 0.123662,0.20765 0.160316,0.29315 l 0.03664,0 c -0.03055,-0.22597 -0.04734,-0.46568 -0.05038,-0.71914 -0.0031,-0.25344 -0.0046,-0.47788 -0.0046,-0.67332 l 0,-5.89047 3.664365,0 0,13.13675 z" style="font-variant:normal;font-weight:800;font-stretch:normal;text-align:start;line-height:125%;writing-mode:lr-tb;text-anchor:start;fill:#4d4d4d;font-family:Segoe WP Black;-inkscape-font-specification:'Segoe WP Black, Ultra-Bold'" id="path3006"/>
        <path d="m -51.621392,338.89135 0,-13.13675 8.180694,0 0,3.09639 -4.22318,0 0,1.91463 3.966675,0 0,3.09639 -3.966675,0 0,1.93295 4.525491,0 0,3.09639 z" style="font-variant:normal;font-weight:800;font-stretch:normal;text-align:start;line-height:125%;writing-mode:lr-tb;text-anchor:start;fill:#4d4d4d;font-family:Segoe WP Black;-inkscape-font-specification:'Segoe WP Black, Ultra-Bold'" id="path3008"/>
        <path d="m -34.609577,328.85099 0,10.04036 -3.975836,0 0,-10.04036 -3.673526,0 0,-3.09639 11.368692,0 0,3.09639 z" style="font-variant:normal;font-weight:800;font-stretch:normal;text-align:start;line-height:125%;writing-mode:lr-tb;text-anchor:start;fill:#4d4d4d;font-family:Segoe WP Black;-inkscape-font-specification:'Segoe WP Black, Ultra-Bold'" id="path3010"/>
        <path d="m -60.375252,348.03039 c -7e-6,0.35699 -0.06172,0.68834 -0.18514,0.99406 -0.123434,0.30572 -0.31617,0.57061 -0.578207,0.79468 -0.262051,0.22407 -0.598152,0.39971 -1.008302,0.52694 -0.410162,0.12722 -0.903869,0.19083 -1.481122,0.19083 l -3.725591,0 0,-8.16895 3.469243,0 c 1.089949,0 1.904565,0.16521 2.443851,0.4956 0.539273,0.33041 0.808913,0.82412 0.80892,1.48112 -7e-6,0.19749 -0.02944,0.37504 -0.0883,0.53264 -0.05887,0.15761 -0.136726,0.29908 -0.233562,0.4244 -0.09685,0.12533 -0.206984,0.23451 -0.330404,0.32755 -0.123433,0.0931 -0.249708,0.1728 -0.378825,0.23926 -0.12913,0.0665 -0.256354,0.11963 -0.381674,0.15951 -0.125332,0.0399 -0.237365,0.0693 -0.336101,0.0883 l 0,0.0228 c 0.319005,0.038 0.602887,0.11868 0.851645,0.24211 0.248746,0.12343 0.458571,0.27154 0.629477,0.44433 0.170891,0.1728 0.300964,0.36364 0.390219,0.57251 0.08924,0.20888 0.133863,0.41966 0.13387,0.63233 z m -2.871097,-3.25847 c -5e-6,-0.26963 -0.106342,-0.46332 -0.319011,-0.58106 -0.212678,-0.11772 -0.503206,-0.17658 -0.871583,-0.17659 l -0.45573,0 0,1.54378 0.712078,0 c 0.140512,1e-5 0.268686,-0.0199 0.384522,-0.0598 0.115827,-0.0399 0.214568,-0.0949 0.296224,-0.1652 0.08165,-0.0703 0.14431,-0.15381 0.187989,-0.25065 0.04367,-0.0968 0.06551,-0.20033 0.06551,-0.31047 z m 0.256348,3.24708 c -5e-6,-0.12153 -0.02374,-0.23261 -0.07121,-0.33326 -0.04748,-0.10063 -0.112038,-0.18608 -0.193685,-0.25635 -0.08166,-0.0702 -0.179448,-0.12437 -0.293376,-0.16235 -0.113937,-0.038 -0.239263,-0.057 -0.375977,-0.057 l -0.968426,0 0,1.66912 0.820314,0 c 0.159501,0 0.305714,-0.019 0.43864,-0.057 0.132916,-0.038 0.246848,-0.093 0.341797,-0.1652 0.09494,-0.0722 0.168995,-0.16141 0.222168,-0.26774 0.05316,-0.10634 0.07975,-0.22977 0.07975,-0.37028 z" style="font-size:11.66668224px;font-variant:normal;font-weight:800;font-stretch:normal;text-align:start;line-height:125%;writing-mode:lr-tb;text-anchor:start;fill:#4d4d4d;font-family:Segoe WP Black;-inkscape-font-specification:'Segoe WP Black, Ultra-Bold'" id="path3012"/>
        <path d="m -56.273684,350.5369 0,-0.88867 -0.02279,0 c -0.182296,0.32281 -0.420604,0.57536 -0.714926,0.75765 -0.294329,0.18229 -0.648468,0.27344 -1.06242,0.27344 -0.296227,0 -0.554473,-0.0465 -0.774741,-0.13957 -0.22027,-0.093 -0.403512,-0.22122 -0.549724,-0.38452 -0.146214,-0.1633 -0.255399,-0.35414 -0.327556,-0.57251 -0.07216,-0.21837 -0.108236,-0.45288 -0.108236,-0.70353 0,-0.21268 0.02848,-0.42535 0.08545,-0.63803 0.05697,-0.21267 0.162353,-0.41015 0.316162,-0.59245 0.153808,-0.18228 0.368381,-0.34084 0.643718,-0.47566 0.275336,-0.13482 0.631374,-0.23071 1.068117,-0.28768 l 1.446942,-0.18799 c -4e-6,-0.0987 -0.02374,-0.18799 -0.07121,-0.26774 -0.04747,-0.0797 -0.112986,-0.14811 -0.196533,-0.20508 -0.08355,-0.057 -0.183245,-0.10064 -0.299073,-0.13102 -0.115834,-0.0304 -0.242109,-0.0456 -0.378825,-0.0456 -0.193688,1e-5 -0.386423,0.0162 -0.578207,0.0484 -0.191789,0.0323 -0.375979,0.075 -0.552573,0.12817 -0.176596,0.0532 -0.343697,0.11299 -0.501302,0.17944 -0.157608,0.0665 -0.302872,0.13388 -0.435792,0.20223 l 0,-1.57796 c 0.140516,-0.0608 0.308566,-0.11962 0.504151,-0.1766 0.195583,-0.057 0.40256,-0.10633 0.620932,-0.14811 0.218368,-0.0418 0.437688,-0.0759 0.65796,-0.10254 0.220266,-0.0266 0.427243,-0.0399 0.620932,-0.0399 0.531681,0 0.977916,0.0579 1.338706,0.17374 0.360781,0.11584 0.651308,0.28864 0.871583,0.5184 0.220264,0.22976 0.37787,0.51649 0.47282,0.86018 0.09494,0.34371 0.142409,0.74532 0.142415,1.20484 l 0,3.21859 z m -0.820313,-2.55778 c -0.186093,0.0304 -0.335154,0.0921 -0.447185,0.18514 -0.112036,0.0931 -0.168053,0.22312 -0.168051,0.39022 -2e-6,0.0646 0.01044,0.12912 0.03133,0.19368 0.02088,0.0646 0.05411,0.12343 0.09969,0.1766 0.04557,0.0532 0.105385,0.0959 0.179443,0.12817 0.07405,0.0323 0.16425,0.0484 0.27059,0.0484 0.121525,0 0.234508,-0.0237 0.338949,-0.0712 0.104435,-0.0475 0.194631,-0.11583 0.270589,-0.20508 0.07595,-0.0892 0.135766,-0.19653 0.179444,-0.32186 0.04367,-0.12533 0.06551,-0.26394 0.06551,-0.41586 l 0,-0.22216 z" style="font-size:11.66668224px;font-variant:normal;font-weight:800;font-stretch:normal;text-align:start;line-height:125%;writing-mode:lr-tb;text-anchor:start;fill:#4d4d4d;font-family:Segoe WP Black;-inkscape-font-specification:'Segoe WP Black, Ultra-Bold'" id="path3014"/>
        <path d="m -49.187086,350.5369 0,-3.18441 c -4e-6,-0.18988 -0.01425,-0.34939 -0.04272,-0.47852 -0.02849,-0.12912 -0.07216,-0.23355 -0.131023,-0.31331 -0.05887,-0.0797 -0.131026,-0.13671 -0.216471,-0.1709 -0.08545,-0.0342 -0.185144,-0.0513 -0.299073,-0.0513 -0.117734,1e-5 -0.218374,0.0247 -0.301921,0.0741 -0.08355,0.0494 -0.151913,0.11488 -0.205078,0.19653 -0.05317,0.0817 -0.09305,0.1747 -0.119629,0.27914 -0.02659,0.10444 -0.03988,0.21172 -0.03988,0.32185 l 0,3.32683 -2.426761,0 0,-5.83334 2.426761,0 0,0.91146 0.02279,0 c 0.07975,-0.13671 0.178491,-0.26868 0.296224,-0.39591 0.117727,-0.12722 0.253496,-0.23926 0.407309,-0.33611 0.153804,-0.0968 0.325652,-0.17469 0.515544,-0.23356 0.189883,-0.0589 0.398759,-0.0883 0.626628,-0.0883 0.273433,0 0.526932,0.0399 0.760499,0.11962 0.233556,0.0798 0.435786,0.21363 0.606691,0.40162 0.170892,0.18799 0.304762,0.43674 0.401612,0.74625 0.09683,0.30952 0.145257,0.69215 0.145263,1.14787 l 0,3.56039 z" style="font-size:11.66668224px;font-variant:normal;font-weight:800;font-stretch:normal;text-align:start;line-height:125%;writing-mode:lr-tb;text-anchor:start;fill:#4d4d4d;font-family:Segoe WP Black;-inkscape-font-specification:'Segoe WP Black, Ultra-Bold'" id="path3016"/>
        <path d="m -41.906804,350.5369 -1.29883,-2.99642 -0.02279,0 0,2.99642 -2.426761,0 0,-8.63608 2.426761,0 0,5.54282 0.02279,0 1.179201,-2.74008 2.734379,0 -1.577964,2.67172 1.66911,3.16162 z" style="font-size:11.66668224px;font-variant:normal;font-weight:800;font-stretch:normal;text-align:start;line-height:125%;writing-mode:lr-tb;text-anchor:start;fill:#4d4d4d;font-family:Segoe WP Black;-inkscape-font-specification:'Segoe WP Black, Ultra-Bold'" id="path3018"/>
        <path d="m -36.158911,343.13129 c -3e-6,0.15952 -0.03038,0.30953 -0.09115,0.45004 -0.06077,0.14052 -0.148115,0.26205 -0.262045,0.36458 -0.113935,0.10255 -0.255401,0.1842 -0.424398,0.24495 -0.169002,0.0608 -0.361737,0.0912 -0.578207,0.0912 -0.208878,10e-6 -0.396866,-0.0313 -0.563966,-0.094 -0.167102,-0.0627 -0.308568,-0.14621 -0.424398,-0.25065 -0.115832,-0.10444 -0.205079,-0.22691 -0.267741,-0.36744 -0.06266,-0.14051 -0.09399,-0.28672 -0.09399,-0.43864 0,-0.17469 0.03418,-0.33134 0.10254,-0.46997 0.06836,-0.13861 0.162353,-0.25634 0.281982,-0.35319 0.119629,-0.0968 0.262044,-0.17089 0.427247,-0.22217 0.165201,-0.0513 0.344644,-0.0769 0.538331,-0.0769 0.205076,1e-5 0.391166,0.0275 0.558269,0.0826 0.167098,0.0551 0.309514,0.13198 0.427247,0.23071 0.117727,0.0987 0.208873,0.21648 0.273437,0.35319 0.06456,0.13673 0.09684,0.28864 0.09684,0.45573 z m -2.569177,7.40561 0,-5.83334 2.426761,0 0,5.83334 z" style="font-size:11.66668224px;font-variant:normal;font-weight:800;font-stretch:normal;text-align:start;line-height:125%;writing-mode:lr-tb;text-anchor:start;fill:#4d4d4d;font-family:Segoe WP Black;-inkscape-font-specification:'Segoe WP Black, Ultra-Bold'" id="path3020"/>
        <path d="m -31.345265,350.5369 0,-3.18441 c -4e-6,-0.18988 -0.01425,-0.34939 -0.04272,-0.47852 -0.02849,-0.12912 -0.07216,-0.23355 -0.131022,-0.31331 -0.05887,-0.0797 -0.131026,-0.13671 -0.216472,-0.1709 -0.08545,-0.0342 -0.185144,-0.0513 -0.299072,-0.0513 -0.117734,1e-5 -0.218374,0.0247 -0.301921,0.0741 -0.08355,0.0494 -0.151913,0.11488 -0.205079,0.19653 -0.05317,0.0817 -0.09305,0.1747 -0.119629,0.27914 -0.02659,0.10444 -0.03988,0.21172 -0.03988,0.32185 l 0,3.32683 -2.426761,0 0,-5.83334 2.426761,0 0,0.91146 0.02279,0 c 0.07975,-0.13671 0.178491,-0.26868 0.296225,-0.39591 0.117727,-0.12722 0.253496,-0.23926 0.407308,-0.33611 0.153805,-0.0968 0.325653,-0.17469 0.515545,-0.23356 0.189883,-0.0589 0.398758,-0.0883 0.626628,-0.0883 0.273433,0 0.526932,0.0399 0.760499,0.11962 0.233556,0.0798 0.435786,0.21363 0.60669,0.40162 0.170893,0.18799 0.304763,0.43674 0.401612,0.74625 0.09684,0.30952 0.145257,0.69215 0.145264,1.14787 l 0,3.56039 z" style="font-size:11.66668224px;font-variant:normal;font-weight:800;font-stretch:normal;text-align:start;line-height:125%;writing-mode:lr-tb;text-anchor:start;fill:#4d4d4d;font-family:Segoe WP Black;-inkscape-font-specification:'Segoe WP Black, Ultra-Bold'" id="path3022"/>
        <path d="m -21.490111,349.72229 c -7e-6,0.31141 -0.03039,0.61523 -0.09115,0.91145 -0.06077,0.29623 -0.158562,0.57536 -0.293376,0.83741 -0.134826,0.26204 -0.309522,0.50415 -0.524089,0.72632 -0.214579,0.22216 -0.475673,0.413 -0.783286,0.57251 -0.307622,0.1595 -0.663661,0.28388 -1.068116,0.37313 -0.404464,0.0892 -0.864941,0.13386 -1.381431,0.13387 -0.182295,-10e-6 -0.364586,-0.008 -0.546876,-0.0228 -0.182294,-0.0152 -0.353192,-0.0361 -0.512696,-0.0627 -0.159507,-0.0266 -0.303821,-0.057 -0.432943,-0.0912 -0.129125,-0.0342 -0.229765,-0.0684 -0.301921,-0.10254 l 0,-1.90267 c 0.07975,0.0494 0.181341,0.10349 0.304769,0.16235 0.123426,0.0589 0.262043,0.11299 0.415854,0.16236 0.153807,0.0494 0.31711,0.0911 0.489909,0.12532 0.172795,0.0342 0.344643,0.0513 0.515544,0.0513 0.296222,0 0.555418,-0.038 0.777589,-0.11393 0.222165,-0.0759 0.409204,-0.17944 0.561118,-0.31046 0.151905,-0.13103 0.265838,-0.28294 0.341797,-0.45573 0.07595,-0.1728 0.113928,-0.35794 0.113932,-0.55542 l 0,-0.35889 -0.02279,0 c -0.06457,0.0987 -0.150015,0.20033 -0.256348,0.30477 -0.106341,0.10444 -0.231667,0.19938 -0.375977,0.28483 -0.144318,0.0854 -0.305722,0.15476 -0.484213,0.20792 -0.178497,0.0532 -0.374081,0.0798 -0.586752,0.0798 -0.379777,0 -0.720625,-0.0684 -1.022544,-0.20508 -0.301922,-0.13672 -0.55827,-0.3323 -0.769044,-0.58675 -0.210776,-0.25445 -0.37123,-0.56397 -0.481364,-0.92855 -0.110135,-0.36458 -0.165203,-0.77284 -0.165202,-1.22478 -1e-6,-0.52788 0.07406,-0.99026 0.222168,-1.38712 0.148111,-0.39686 0.344645,-0.72727 0.5896,-0.99122 0.244954,-0.26393 0.525987,-0.46237 0.8431,-0.59529 0.31711,-0.13292 0.644666,-0.19938 0.982668,-0.19938 0.205075,0 0.387367,0.0218 0.546875,0.0655 0.159502,0.0437 0.300019,0.10064 0.421551,0.1709 0.121523,0.0703 0.225961,0.15001 0.313314,0.23925 0.08734,0.0893 0.1614,0.17945 0.222168,0.27059 l 0.02279,0 0,-0.60384 2.415368,0 z m -2.375491,-2.26726 c -5e-6,-0.12153 -0.0133,-0.2478 -0.03988,-0.37883 -0.02659,-0.13101 -0.07216,-0.25064 -0.136718,-0.35888 -0.06457,-0.10823 -0.150965,-0.19843 -0.259197,-0.27059 -0.10824,-0.0722 -0.244009,-0.10823 -0.407308,-0.10824 -0.14052,1e-5 -0.266795,0.0332 -0.378826,0.0997 -0.112036,0.0665 -0.20698,0.15951 -0.284831,0.27914 -0.07786,0.11963 -0.136722,0.2611 -0.176595,0.4244 -0.03988,0.1633 -0.05982,0.3418 -0.05982,0.53548 -2e-6,0.37598 0.06836,0.6741 0.205079,0.89437 0.136716,0.22027 0.353187,0.3304 0.649415,0.3304 0.14431,0 0.272484,-0.0313 0.384522,-0.094 0.112029,-0.0627 0.205074,-0.15001 0.279134,-0.26205 0.07405,-0.11203 0.130069,-0.244 0.168051,-0.39591 0.03797,-0.15191 0.05696,-0.31711 0.05697,-0.49561 z" style="font-size:11.66668224px;font-variant:normal;font-weight:800;font-stretch:normal;text-align:start;line-height:125%;writing-mode:lr-tb;text-anchor:start;fill:#4d4d4d;font-family:Segoe WP Black;-inkscape-font-specification:'Segoe WP Black, Ultra-Bold'" id="path3024"/>
      </g>
      <g style="font-size:26.27632332px;font-style:normal;font-weight:normal;line-height:125%;letter-spacing:0px;word-spacing:0px;fill:#ffffff;fill-opacity:1;stroke:none;font-family:Sans" id="text4978">
        <path d="m -1342.6239,445.26446 0,-2.30944 c -1.1548,-0.14541 -2.0935,-0.40415 -2.8163,-0.77623 -0.7227,-0.37208 -1.3472,-0.97296 -1.8732,-1.80265 -0.526,-0.82968 -0.8318,-1.84327 -0.9174,-3.04076 l 2.3223,-0.43623 c 0.1796,1.24026 0.4961,2.1512 0.9495,2.73284 0.65,0.82113 1.4284,1.27875 2.3351,1.37283 l 0,-7.35172 c -0.9495,-0.17962 -1.9203,-0.54742 -2.9125,-1.1034 -0.7356,-0.41056 -1.3023,-0.97937 -1.7,-1.70642 -0.3977,-0.72704 -0.5966,-1.55245 -0.5966,-2.47624 0,-1.64225 0.5816,-2.97232 1.7449,-3.9902 0.7784,-0.68426 1.9331,-1.10338 3.4642,-1.25737 l 0,-1.1034 1.36,0 0,1.1034 c 1.3429,0.12833 2.4078,0.52179 3.1947,1.18039 1.0093,0.83826 1.6166,1.9887 1.8219,3.45133 l -2.3864,0.35925 c -0.1369,-0.90666 -0.4213,-1.60163 -0.8532,-2.08492 -0.432,-0.48325 -1.0243,-0.80187 -1.777,-0.95585 l 0,6.65889 c 1.1632,0.29083 1.933,0.5175 2.3094,0.68 0.7185,0.31649 1.3044,0.7014 1.7578,1.15473 0.4533,0.45334 0.8018,0.99221 1.0456,1.61661 0.2438,0.62441 0.3657,1.30013 0.3657,2.02717 0,1.59951 -0.509,2.93385 -1.5268,4.00304 -1.0179,1.06918 -2.3351,1.64227 -3.9517,1.71925 l 0,2.3351 z m 0,-20.22045 c -0.8982,0.13687 -1.606,0.49612 -2.1234,1.07774 -0.5175,0.58165 -0.7763,1.27021 -0.7763,2.06567 0,0.78693 0.2203,1.44555 0.6608,1.97585 0.4405,0.53033 1.1868,0.95373 2.2389,1.2702 z m 1.36,15.96081 c 0.8981,-0.11119 1.6401,-0.50037 2.226,-1.16755 0.5859,-0.66717 0.8789,-1.49258 0.8789,-2.47623 0,-0.83824 -0.2074,-1.51183 -0.6223,-2.02077 -0.4148,-0.50892 -1.2424,-0.96439 -2.4826,-1.36642 z" style="" id="path3003"/>
      </g>
    </g>
  </g>

	
	
	<metadata>
		<rdf:RDF xmlns:rdf="http://www.w3.org/1999/02/22-rdf-syntax-ns#" xmlns:rdfs="http://www.w3.org/2000/01/rdf-schema#" xmlns:dc="http://purl.org/dc/elements/1.1/">
			<rdf:Description about="https://iconscout.com/legal#licenses" dc:title="Netbanking, Credit, Debit, Card, Bank, Transaction" dc:description="Netbanking, Credit, Debit, Card, Bank, Transaction" dc:publisher="Iconscout" dc:date="2016-12-14" dc:format="image/svg+xml" dc:language="en">
				<dc:creator>
					<rdf:Bag>
						<rdf:li>Dalpat Prajapati</rdf:li>
					</rdf:Bag>
				</dc:creator>
			</rdf:Description>
		</rdf:RDF>
    </metadata></svg>
